<svg width="45" height="40" viewBox="0 0 45 40" fill="none" xmlns="http://www.w3.org/2000/svg">
<g clip-path="url(#clip0_427_37)">
<path d="M44.7999 27.2108C44.7999 25.0795 42.8783 23.3444 40.5192 23.3444C40.4168 23.3444 40.3171 23.3607 40.2174 23.3657C40.6411 22.4607 40.8737 21.4531 40.8737 20.3468C40.8737 17.7655 37.2188 11.8441 34.8334 9.88651C33.5265 10.1403 32.1366 10.2778 30.6954 10.2778C29.2085 10.2778 27.7826 10.1315 26.4397 9.86276C24.0834 11.5816 19.9565 17.6855 19.9565 20.3481C19.9565 20.7969 20.0022 21.2244 20.0838 21.6319C19.3723 21.5881 18.6482 21.5631 17.9103 21.5631C16.0012 21.5631 14.1627 21.7494 12.4239 22.0931C12.3726 21.5219 12.3366 21.1731 12.3366 21.1731H0.998257C0.998257 21.1731 0.501251 24.9232 0.501251 29.5446C0.501251 34.166 0.998257 37.9136 0.998257 37.9136H12.3353C12.3353 37.9136 12.4349 36.9349 12.5429 35.5461C14.2305 35.2898 15.9583 35.6923 17.9532 36.8124C20.4839 38.3024 23.6017 39.1887 26.9769 39.1887C30.3991 39.1887 33.3383 38.2774 35.7818 36.7449L35.7845 36.7473C35.8136 36.7286 35.8413 36.7098 35.8787 36.6798C36.5709 36.2398 37.2257 35.7536 37.8362 35.2198C38.3153 34.7773 38.9645 34.211 39.9378 33.351C43.2064 30.4509 43.6093 29.8771 43.6093 29.8771C43.6093 29.8771 43.6023 29.8771 43.5968 29.8771C44.3402 29.1859 44.7999 28.2483 44.7999 27.2108ZM27.9543 17.1505C28.0595 16.9205 28.2104 16.7155 28.3959 16.538C28.5897 16.3567 28.814 16.208 29.0715 16.0917C29.3318 15.9717 29.6128 15.8942 29.9188 15.8529V15.1817H31.4942V15.9555C31.7268 16.0142 31.9359 16.0967 32.1241 16.1967V15.8942H33.701V18.0255H32.1144C31.9871 17.898 31.8611 17.7843 31.742 17.6868C31.6202 17.5893 31.4928 17.5055 31.3599 17.443C31.2229 17.3805 31.0789 17.3305 30.9183 17.2967C30.7563 17.263 30.5694 17.2455 30.3507 17.2455C30.035 17.2455 29.7955 17.3142 29.6253 17.448C29.4577 17.5843 29.3719 17.7293 29.3719 17.8855C29.3719 18.3255 29.8966 18.6155 30.9501 18.7593C31.6022 18.8468 32.1214 18.9918 32.5076 19.1893C32.8897 19.3893 33.1846 19.6056 33.3895 19.8406C33.5916 20.0731 33.7217 20.3043 33.7785 20.5318C33.8353 20.7606 33.8643 20.9419 33.8643 21.0831C33.8643 21.3544 33.8048 21.6081 33.683 21.8381C33.5625 22.0731 33.3992 22.2806 33.1887 22.4532C32.9825 22.6294 32.7291 22.7707 32.4439 22.8807C32.1546 22.9882 31.8389 23.0519 31.5011 23.0732V23.7132H29.9257V22.8807C29.8398 22.8469 29.7651 22.8144 29.682 22.7832C29.6017 22.7569 29.5297 22.7219 29.4522 22.6882V23.0007H27.8767V20.8694H29.4522C29.5893 21.0056 29.718 21.1206 29.8523 21.2206C29.9824 21.3181 30.1153 21.4019 30.2579 21.4619C30.3978 21.5281 30.55 21.5744 30.7176 21.6056C30.8878 21.6331 31.0803 21.6481 31.299 21.6481C31.5828 21.6481 31.8182 21.5969 32.0078 21.4919C32.1961 21.3869 32.2889 21.2519 32.2889 21.0806C32.2889 20.9394 32.2377 20.8156 32.1421 20.7081C32.0466 20.6043 31.9206 20.5168 31.767 20.4393C31.6147 20.3656 31.4472 20.3068 31.263 20.2631C31.0775 20.2193 30.8962 20.1831 30.7148 20.1556C30.0766 20.0681 29.5685 19.9293 29.1864 19.7481C28.8057 19.5656 28.5108 19.3668 28.3031 19.1493C28.0996 18.9318 27.9598 18.7093 27.8975 18.483C27.8324 18.258 27.802 18.0555 27.802 17.8805C27.7951 17.6268 27.849 17.3817 27.9543 17.1505ZM42.1985 28.7246C41.6254 29.2371 39.2027 31.4934 38.5437 32.076C36.8436 33.5823 36.0503 34.2885 35.6793 34.6785L35.6696 34.6723C35.4094 34.8835 35.1366 35.0723 34.8584 35.2573C32.6654 36.5961 29.934 37.3986 26.9755 37.3986C23.9879 37.3986 21.2357 36.5861 19.0345 35.2261H19.0206C17.1143 34.1785 14.8812 33.5335 12.6717 33.7298C12.7603 32.3522 12.8309 30.8434 12.8309 29.5471C12.8309 27.7433 12.6924 25.5332 12.5665 23.8344C14.2458 23.4932 16.0413 23.3019 17.9062 23.3019C23.6058 23.3019 28.6492 25.0032 31.7379 27.6696C32.102 28.0358 32.3318 28.5171 32.3318 29.0471C32.3318 30.1896 31.3018 31.1197 30.0364 31.1197C29.9921 31.1197 29.9464 31.1072 29.8938 31.1047L29.8883 31.1272C28.7074 31.0909 26.8592 30.6434 23.7387 29.5646L23.0299 31.2447C26.329 32.3772 28.5025 32.8897 30.0434 32.9247V32.9122C31.9746 32.9097 33.6041 31.7447 34.1343 30.1609V30.1634C34.8016 29.1621 37.3005 27.077 38.7195 25.937V25.9395C38.7361 25.922 38.7486 25.9133 38.7596 25.9033C39.0213 25.6933 39.2497 25.5132 39.4117 25.387C39.7121 25.2145 40.0222 25.1432 40.5179 25.1432C41.7804 25.1432 42.8105 26.0733 42.8105 27.2158C42.8132 27.7846 42.5322 28.3221 42.1985 28.7246Z" fill="#006AFE"/>
<path d="M26.9812 8.59275C26.9812 8.59275 28.9055 9.00526 30.7911 9.00526C32.6753 9.00526 33.9157 8.764 33.9157 8.764C35.0108 8.27774 37.4723 3.15133 36.0283 1.34377C34.4141 -0.672541 31.7159 3.7101 30.4699 3.26008C29.2294 2.81132 26.5824 0.473744 24.8367 1.42627C23.3194 2.25505 25.7878 7.79147 26.9812 8.59275Z" fill="#006AFE"/>
</g>
<defs>
<clipPath id="clip0_427_37">
<rect width="44.3" height="40" fill="white" transform="translate(0.5)"/>
</clipPath>
</defs>
</svg>
