<svg width="72" height="77" viewBox="0 0 72 77" fill="none" xmlns="http://www.w3.org/2000/svg">
<rect y="0.581055" width="72" height="76" rx="36" fill="#24D278"/>
<g clip-path="url(#clip0_440_30)">
<path d="M32.4229 47.1965C30.3306 47.1965 28.7306 48.7965 28.7306 50.8888C28.7306 52.9812 30.3306 54.5812 32.4229 54.5812C34.5152 54.5812 36.1152 52.9812 36.1152 50.8888C36.1152 48.7965 34.5152 47.1965 32.4229 47.1965ZM32.4229 52.6119C31.4383 52.6119 30.6998 51.8735 30.6998 50.8888C30.6998 49.9042 31.4383 49.1658 32.4229 49.1658C33.4075 49.1658 34.146 49.9042 34.146 50.8888C34.146 51.8735 33.4075 52.6119 32.4229 52.6119Z" fill="#006AFE"/>
<path d="M44.7306 47.1965C42.6383 47.1965 41.0383 48.7965 41.0383 50.8888C41.0383 52.9812 42.6383 54.5812 44.7306 54.5812C46.8229 54.5812 48.4229 52.9812 48.4229 50.8888C48.4229 48.7965 46.8229 47.1965 44.7306 47.1965ZM44.7306 52.6119C43.746 52.6119 43.0075 51.8735 43.0075 50.8888C43.0075 49.9042 43.746 49.1658 44.7306 49.1658C45.7152 49.1658 46.4537 49.9042 46.4537 50.8888C46.4537 51.8735 45.7152 52.6119 44.7306 52.6119Z" fill="#006AFE"/>
<path d="M49.4075 27.5041H28.3614L26.2691 22.5811H21.346V25.0426H24.6691L29.8383 37.5964C28.3614 38.2118 27.3768 39.6887 27.4999 41.4118C27.746 43.3811 29.4691 44.7349 31.3152 44.7349H48.4229V42.2734H31.1922C30.4537 42.2734 29.9614 41.7811 29.9614 41.0426C29.9614 40.3041 30.4537 39.8118 31.1922 39.8118H47.4383C48.0537 39.8118 48.546 39.4426 48.6691 38.8272L50.6383 28.9811C50.7614 28.2426 50.146 27.5041 49.4075 27.5041Z" fill="#006AFE"/>
</g>
<defs>
<clipPath id="clip0_440_30">
<rect width="32" height="32" fill="white" transform="translate(20 22.5811)"/>
</clipPath>
</defs>
</svg>
