<svg width="77" height="77" viewBox="0 0 77 77" fill="none" xmlns="http://www.w3.org/2000/svg">
<rect x="0.5" width="76" height="76.581" rx="38" fill="#24D278"/>
<path d="M56.3886 46.6671L54.9076 38.6112C54.4317 34.929 51.2804 32.1564 47.5648 32.1564H29.4348C25.7192 32.1564 22.5681 34.929 22.092 38.6112L20.611 46.6671C19.8746 50.6725 22.8941 54.413 26.9443 54.5755C30.8035 54.73 33.9041 51.5794 33.9162 47.8199C33.9163 47.8065 33.4807 47.8111 43.0835 47.8111C43.0835 51.5577 46.1844 54.7309 50.0554 54.5755C54.0872 54.4137 57.1287 50.6916 56.3886 46.6671ZM33.4226 41.6057H31.6596V43.3686C31.6596 43.9528 31.186 44.4264 30.6019 44.4264C30.0177 44.4264 29.5441 43.9528 29.5441 43.3686V41.6057H27.7812C27.197 41.6057 26.7234 41.1321 26.7234 40.5479C26.7234 39.9638 27.197 39.4902 27.7812 39.4902H29.5441V37.7272C29.5441 37.1431 30.0177 36.6695 30.6019 36.6695C31.186 36.6695 31.6596 37.1431 31.6596 37.7272V39.4902H33.4226C34.0067 39.4902 34.4803 39.9638 34.4803 40.5479C34.4803 41.1321 34.0067 41.6057 33.4226 41.6057ZM44.6348 40.6185C44.6348 41.2026 44.1612 41.6762 43.5771 41.6762C42.9929 41.6762 42.5193 41.2026 42.5193 40.6185V40.5479C42.5193 39.9638 42.9929 39.4902 43.5771 39.4902C44.1612 39.4902 44.6348 39.9638 44.6348 40.5479V40.6185ZM47.4506 43.473C47.393 44.0275 46.9149 44.4722 46.2934 44.4214C45.7015 44.3597 45.286 43.8331 45.3449 43.265C45.408 42.6562 45.9679 42.2117 46.6044 42.3313C47.1662 42.4481 47.5028 42.9597 47.4506 43.473ZM47.4506 37.8309C47.3899 38.4275 46.858 38.8377 46.2934 38.7801C45.7002 38.7181 45.2872 38.1912 45.3449 37.6229C45.4096 37.0117 45.9702 36.5708 46.6044 36.6899C47.1677 36.807 47.5035 37.3212 47.4506 37.8309ZM50.2762 40.6185C50.2762 41.2026 49.8026 41.6762 49.2184 41.6762C48.6343 41.6762 48.1607 41.2026 48.1607 40.6185V40.5479C48.1607 39.9638 48.6343 39.4902 49.2184 39.4902C49.8026 39.4902 50.2762 39.9638 50.2762 40.5479V40.6185Z" fill="#006AFE"/>
<path d="M35.7571 27.651C35.3441 28.0641 35.3441 28.7338 35.7571 29.1469C36.1702 29.5599 36.8399 29.5599 37.253 29.1469C37.942 28.4579 39.0571 28.4578 39.7462 29.1469C40.1593 29.56 40.829 29.56 41.2421 29.1469C41.6551 28.7338 41.6551 28.0641 41.2421 27.651C39.7299 26.1388 37.2694 26.1388 35.7571 27.651Z" fill="#006AFE"/>
<path d="M34.0617 25.9556C36.5144 23.5029 40.4845 23.5025 42.9374 25.9556C43.3504 26.3687 44.0202 26.3687 44.4333 25.9556C44.8464 25.5425 44.8464 24.8728 44.4333 24.4597C41.154 21.1803 35.8457 21.1799 32.5659 24.4597C32.1528 24.8728 32.1528 25.5425 32.5659 25.9556C32.979 26.3687 33.6487 26.3687 34.0617 25.9556Z" fill="#006AFE"/>
</svg>
