<svg width="32" height="33" viewBox="0 0 32 33" fill="none" xmlns="http://www.w3.org/2000/svg">
<g clip-path="url(#clip0_572_25)">
<path d="M23.3378 0.581055H8.66209C3.88573 0.581055 0 4.46679 0 9.24315V23.9191C0 28.6953 3.88573 32.581 8.66209 32.581H23.3381C28.1142 32.581 31.9999 28.6953 31.9999 23.9191V9.24315C31.9999 4.46679 28.1142 0.581055 23.3378 0.581055V0.581055ZM16 25.3308C11.1753 25.3308 7.25023 21.4057 7.25023 16.581C7.25023 11.7563 11.1753 7.83128 16 7.83128C20.8247 7.83128 24.7497 11.7563 24.7497 16.581C24.7497 21.4057 20.8247 25.3308 16 25.3308V25.3308ZM24.9589 9.89476C23.5332 9.89476 22.3735 8.73509 22.3735 7.30931C22.3735 5.88353 23.5332 4.72362 24.9589 4.72362C26.3847 4.72362 27.5446 5.88353 27.5446 7.30931C27.5446 8.73509 26.3847 9.89476 24.9589 9.89476Z" fill="#006AFE"/>
<path d="M16 9.70703C12.2099 9.70703 9.12621 12.7905 9.12621 16.5808C9.12621 20.3708 12.2099 23.4546 16 23.4546C19.7902 23.4546 22.8737 20.3708 22.8737 16.5808C22.8737 12.7905 19.7902 9.70703 16 9.70703V9.70703Z" fill="#006AFE"/>
<path d="M24.9589 6.59961C24.5678 6.59961 24.2495 6.91797 24.2495 7.30908C24.2495 7.70019 24.5678 8.01855 24.9589 8.01855C25.3503 8.01855 25.6687 7.70044 25.6687 7.30908C25.6687 6.91772 25.3503 6.59961 24.9589 6.59961Z" fill="#006AFE"/>
</g>
<defs>
<clipPath id="clip0_572_25">
<rect width="32" height="32" fill="white" transform="translate(0 0.581055)"/>
</clipPath>
</defs>
</svg>
