<svg width="45" height="40" viewBox="0 0 45 40" fill="none" xmlns="http://www.w3.org/2000/svg">
<path d="M10.8524 8.1105L28.5127 3.75788L27.5775 2.05098C26.9656 0.941488 25.4732 0.483319 24.2444 1.03582L8.43469 8.1105H10.8524Z" fill="#006AFE"/>
<path d="M33.9948 3.88367C33.776 3.88367 33.5571 3.91062 33.3382 3.96452L29.1893 4.98866L16.5186 8.11051H30.9006H37.1687L36.3927 5.54116C36.0942 4.53948 35.0893 3.88367 33.9948 3.88367Z" fill="#006AFE"/>
<path d="M39.7606 9.68262H39.1935H38.4224H37.6513H31.7662H10.141H7.30544H4.91756H4.47481H2.99234C2.20633 9.68262 1.5049 10.0105 1.04722 10.5271C0.838282 10.7652 0.67909 11.0392 0.589545 11.3401C0.534823 11.5288 0.5 11.7264 0.5 11.9285V12.1981V14.7584V36.9527C0.5 38.1925 1.61434 39.1986 2.98737 39.1986H39.7556C41.1287 39.1986 42.243 38.1925 42.243 36.9527V30.6865H27.483C25.1498 30.6865 23.2544 28.9751 23.2544 26.8685V24.8112V24.115V23.4187V21.8735C23.2544 20.8404 23.7121 19.9016 24.4533 19.2144C25.11 18.6034 25.9905 18.1902 26.9755 18.0869C27.1397 18.069 27.3088 18.0599 27.478 18.0599H40.1735H40.9446H41.7157H42.243V11.9285C42.248 10.6888 41.1336 9.68262 39.7606 9.68262Z" fill="#006AFE"/>
<path d="M43.9891 20.207C43.7404 20.0004 43.4469 19.8432 43.1186 19.7399C42.8648 19.6636 42.5962 19.6187 42.3126 19.6187H42.248H42.1982H41.4271H38.6463H27.483C26.1099 19.6187 24.9956 20.6248 24.9956 21.8646V22.983V23.6792V24.3755V26.864C24.9956 28.1037 26.1099 29.1099 27.483 29.1099H42.248H42.3126C42.5962 29.1099 42.8648 29.065 43.1186 28.9886C43.4469 28.8898 43.7404 28.7281 43.9891 28.5215C44.4866 28.1127 44.8 27.5198 44.8 26.864V21.8646C44.8 21.2087 44.4866 20.6158 43.9891 20.207ZM32.6766 24.8112C32.6766 25.4311 32.1194 25.9342 31.4329 25.9342H30.6071C29.9206 25.9342 29.3634 25.4311 29.3634 24.8112V24.0656C29.3634 23.7062 29.5475 23.3872 29.841 23.1851C30.0549 23.0369 30.3186 22.9426 30.6071 22.9426H30.816H31.4329C32.1194 22.9426 32.6766 23.4456 32.6766 24.0656V24.8112Z" fill="#006AFE"/>
</svg>
