<svg width="32" height="33" viewBox="0 0 32 33" fill="none" xmlns="http://www.w3.org/2000/svg">
<g clip-path="url(#clip0_572_29)">
<path d="M32 6.65905C30.81 7.18105 29.542 7.52705 28.22 7.69505C29.58 6.88305 30.618 5.60705 31.106 4.06905C29.838 4.82505 28.438 5.35905 26.946 5.65705C25.742 4.37505 24.026 3.58105 22.154 3.58105C18.522 3.58105 15.598 6.52905 15.598 10.1431C15.598 10.6631 15.642 11.1631 15.75 11.6391C10.296 11.3731 5.47 8.75905 2.228 4.77705C1.662 5.75905 1.33 6.88305 1.33 8.09305C1.33 10.3651 2.5 12.3791 4.244 13.5451C3.19 13.5251 2.156 13.2191 1.28 12.7371C1.28 12.7571 1.28 12.7831 1.28 12.8091C1.28 15.9971 3.554 18.6451 6.536 19.2551C6.002 19.4011 5.42 19.4711 4.816 19.4711C4.396 19.4711 3.972 19.4471 3.574 19.3591C4.424 21.9571 6.836 23.8671 9.704 23.9291C7.472 25.6751 4.638 26.7271 1.57 26.7271C1.032 26.7271 0.516 26.7031 0 26.6371C2.906 28.5111 6.35 29.5811 10.064 29.5811C22.136 29.5811 28.736 19.5811 28.736 10.9131C28.736 10.6231 28.726 10.3431 28.712 10.0651C30.014 9.14105 31.108 7.98705 32 6.65905Z" fill="#006AFE"/>
</g>
<defs>
<clipPath id="clip0_572_29">
<rect width="32" height="32" fill="white" transform="translate(0 0.581055)"/>
</clipPath>
</defs>
</svg>
