<svg width="32" height="33" viewBox="0 0 32 33" fill="none" xmlns="http://www.w3.org/2000/svg">
<path d="M21.212 16.7447L32 23.5647V9.63672L21.212 16.7447Z" fill="#006AFE"/>
<path d="M0 9.63672V23.5647L10.788 16.7447L0 9.63672Z" fill="#006AFE"/>
<path d="M30 5.58105H2C1.002 5.58105 0.209998 6.32505 0.0599976 7.28305L16 17.7851L31.94 7.28305C31.79 6.32505 30.998 5.58105 30 5.58105Z" fill="#006AFE"/>
<path d="M19.38 17.9527L16.55 19.8167C16.382 19.9267 16.192 19.9807 16 19.9807C15.808 19.9807 15.618 19.9267 15.45 19.8167L12.62 17.9507L0.0639954 25.8927C0.217995 26.8427 1.006 27.5807 2 27.5807H30C30.994 27.5807 31.782 26.8427 31.936 25.8927L19.38 17.9527Z" fill="#006AFE"/>
</svg>
