<svg width="32" height="33" viewBox="0 0 32 33" fill="none" xmlns="http://www.w3.org/2000/svg">
<g clip-path="url(#clip0_440_51)">
<path d="M16 0.790527C7.17725 0.790527 0 7.96777 0 16.7905C0 25.6133 7.17725 32.7905 16 32.7905C24.8228 32.7905 32 25.6133 32 16.7905C32 7.96777 24.8228 0.790527 16 0.790527Z" fill="#006AFE"/>
<path d="M24.1094 13.3999L15.4426 22.0664C15.1826 22.3264 14.8413 22.4573 14.5 22.4573C14.1587 22.4573 13.8174 22.3264 13.5574 22.0664L9.22412 17.7332C8.70264 17.2119 8.70264 16.3691 9.22412 15.8479C9.74536 15.3264 10.5879 15.3264 11.1094 15.8479L14.5 19.2385L22.2241 11.5146C22.7454 10.9932 23.5879 10.9932 24.1094 11.5146C24.6306 12.0359 24.6306 12.8784 24.1094 13.3999Z" fill="#FAFAFA"/>
</g>
<defs>
<clipPath id="clip0_440_51">
<rect width="32" height="32" fill="white" transform="translate(0 0.790527)"/>
</clipPath>
</defs>
</svg>
