<svg width="45" height="40" viewBox="0 0 45 40" fill="none" xmlns="http://www.w3.org/2000/svg">
<g clip-path="url(#clip0_427_46)">
<path d="M31.735 17.6562C31.735 13.1328 27.6597 9.45312 22.65 9.45312C17.6403 9.45312 13.565 13.1328 13.565 17.6562C13.565 22.1797 17.6403 25.8594 22.65 25.8594C27.6597 25.8594 31.735 22.1797 31.735 17.6562ZM16.5502 18.4765L18.3671 16.8359L21.3522 19.5077L26.9331 14.4921L28.75 16.1327L21.3521 22.8359L16.5502 18.4765Z" fill="#006AFE"/>
<path d="M22.65 40L23.0134 39.9062C23.7921 39.7188 42.1178 34.625 42.1178 5.9375V4.76562H40.8199C32.1761 4.76562 23.3769 0.351484 23.273 0.304688L22.65 0L22.027 0.304688C21.9231 0.351484 13.1239 4.76562 4.48008 4.76562H3.18223V5.9375C3.18223 34.625 21.5079 39.7188 22.2866 39.9062L22.65 40ZM10.9693 17.6562C10.9693 11.8437 16.2127 7.10938 22.65 7.10938C29.0873 7.10938 34.3307 11.8437 34.3307 17.6562C34.3307 23.4687 29.0873 28.2031 22.65 28.2031C16.2127 28.2031 10.9693 23.4687 10.9693 17.6562Z" fill="#006AFE"/>
</g>
<defs>
<clipPath id="clip0_427_46">
<rect width="44.3" height="40" fill="white" transform="translate(0.5)"/>
</clipPath>
</defs>
</svg>
