<svg width="93" height="80" viewBox="0 0 93 80" fill="none" xmlns="http://www.w3.org/2000/svg">
<path d="M59.2866 12.0257C69.1333 12.0257 78.0535 15.9775 84.539 22.3749L93 13.7985C84.336 5.26696 72.4284 0 59.2866 0C51.2139 0 43.6069 1.98796 36.9312 5.49819L42.6176 16.1076C47.5981 13.5014 53.2683 12.0257 59.285 12.0257H59.2866Z" fill="#24D278"/>
<path d="M72.5944 43.5937L61.399 55.6194H77.5927C74.5473 62.6913 67.4978 67.6451 59.2866 67.6451C51.0753 67.6451 44.3707 62.9305 41.2109 56.1333C40.9998 56.2377 40.7839 56.3404 40.5664 56.4384C37.1617 57.9671 33.2881 58.5307 29.5643 58.7395C34.0277 70.7828 45.6517 79.3689 59.2882 79.3689C70.7559 79.3689 80.7992 73.2959 86.3582 64.2023L86.5451 43.9117L86.4388 43.5905H72.5944V43.5937Z" fill="#0068FF"/>
<path d="M81.579 25.3762C75.8557 19.7254 67.9796 16.2344 59.2866 16.2344C53.9902 16.2344 48.9967 17.5303 44.6091 19.8202L50.1537 30.1646C52.8897 28.7547 55.9946 27.9583 59.2866 27.9583C64.7666 27.9583 69.7295 30.1646 73.3307 33.7342L81.579 25.3729V25.3762Z" fill="#0068FF"/>
<path d="M59.5283 47.727L59.5524 47.7013L59.5685 47.7318V47.7367L69.8439 37.5801C68.8658 36.6022 66.22 34.2176 62 33.3713C57.274 32.4223 53.5519 34.0008 52.3466 34.5741L59.2817 47.9743M63.4969 43.7029L63.5291 43.6692H63.5759L63.5436 43.7029H63.4969Z" fill="#24D278"/>
<path d="M63.5308 43.6692L63.4985 43.7029H63.5453L63.5775 43.6708L63.5308 43.6692Z" fill="black"/>
<path d="M35.0508 38.5291V37.8418C35.0508 33.5399 28.4896 32.766 24.4323 32.6792H12.6907V77.7792L0 80V20.0321H24.4323C34.5336 20.0321 47.1373 20.8061 47.7415 36.7226H47.8285V39.0462C47.4821 56.4255 33.2381 56.3388 22.792 56.3388H17.4392L21.6689 43.6917H24.5177C28.575 43.6066 35.0508 42.8326 35.0508 38.5291V38.5291Z" fill="#0068FF"/>
</svg>
