<svg width="67" height="58" viewBox="0 0 67 58" fill="none" xmlns="http://www.w3.org/2000/svg">
<path d="M25.2517 27.9336V27.4353C25.2517 24.3165 20.5248 23.7553 17.6018 23.6925H9.14275V56.3899L0 58V14.5233H17.6018C24.8791 14.5233 33.9591 15.0844 34.3944 26.6239H34.4571V28.3085C34.2075 40.9085 23.9457 40.8456 16.42 40.8456H12.5637L15.6109 31.6765H17.6633C20.5863 31.6148 25.2517 31.0536 25.2517 27.9336V27.9336Z" fill="white"/>
<path d="M42.7118 8.71863C49.8057 8.71863 56.2321 11.5837 60.9044 16.2218L67 10.0039C60.7582 3.81855 52.1796 0 42.7118 0C36.896 0 31.4157 1.44127 26.6064 3.98619L30.703 11.678C34.2911 9.78852 38.3761 8.71863 42.7107 8.71863H42.7118Z" fill="#0068FF"/>
<path d="M52.2992 31.6055L44.2337 40.3241H55.9001C53.7061 45.4512 48.6274 49.0427 42.7118 49.0427C36.7962 49.0427 31.966 45.6246 29.6896 40.6966C29.5375 40.7723 29.3819 40.8468 29.2252 40.9178C26.7724 42.0261 23.9817 42.4348 21.299 42.5861C24.5145 51.3175 32.8888 57.5425 42.713 57.5425C50.9747 57.5425 58.2101 53.1395 62.215 46.5467L62.3497 31.836L62.2731 31.6031H52.2992V31.6055Z" fill="white"/>
<path d="M58.772 18.3977C54.6487 14.3009 48.9745 11.77 42.7118 11.77C38.8961 11.77 35.2987 12.7095 32.1378 14.3696L36.1322 21.8693C38.1033 20.8472 40.3402 20.2697 42.7118 20.2697C46.6598 20.2697 50.2352 21.8693 52.8297 24.4573L58.772 18.3954V18.3977Z" fill="white"/>
<path d="M42.8859 34.6021L42.9034 34.5835L42.915 34.6056V34.6091L50.3176 27.2456C49.613 26.5366 47.7069 24.8078 44.6667 24.1942C41.2619 23.5062 38.5804 24.6506 37.7121 25.0662L42.7083 34.7814M45.7451 31.6846L45.7683 31.6602H45.802L45.7787 31.6846H45.7451Z" fill="#0068FF"/>
<path d="M45.7695 31.6602L45.7462 31.6846H45.7799L45.8031 31.6613L45.7695 31.6602Z" fill="black"/>
</svg>
