<svg width="71" height="61" viewBox="0 0 71 61" fill="none" xmlns="http://www.w3.org/2000/svg">
<path d="M26.7592 29.3784V28.8544C26.7592 25.5742 21.7501 24.984 18.6526 24.9179H9.68858V59.3066L0 61V15.2745H18.6526C26.3644 15.2745 35.9865 15.8647 36.4478 28.001H36.5143V29.7727C36.2498 43.0245 25.3753 42.9584 17.4003 42.9584H13.3138L16.5429 33.3149H18.7178C21.8153 33.25 26.7592 32.6599 26.7592 29.3784V29.3784Z" fill="white"/>
<path d="M45.2618 9.16959C52.7792 9.16959 59.5892 12.1829 64.5405 17.0609L71 10.5213C64.3855 4.01606 55.2948 0 45.2618 0C39.0988 0 33.2913 1.51582 28.1948 4.19237L32.536 12.282C36.3384 10.2948 40.6672 9.16959 45.2606 9.16959H45.2618Z" fill="#24D278"/>
<path d="M55.4215 33.2402L46.8745 42.4098H59.2374C56.9124 47.8021 51.5306 51.5794 45.2618 51.5794C38.993 51.5794 33.8744 47.9845 31.4621 42.8016C31.3009 42.8812 31.1361 42.9596 30.97 43.0343C28.3707 44.1999 25.4135 44.6297 22.5706 44.7888C25.9781 53.9719 34.8523 60.5188 45.263 60.5188C54.0179 60.5188 61.6854 55.8881 65.9294 48.9543L66.0721 33.4827L65.9909 33.2378H55.4215V33.2402Z" fill="white"/>
<path d="M62.2808 19.3493C57.9113 15.0406 51.8984 12.3788 45.2618 12.3788C41.2183 12.3788 37.4061 13.3669 34.0564 15.1129L38.2894 23.0005C40.3781 21.9255 42.7486 21.3182 45.2618 21.3182C49.4455 21.3182 53.2343 23.0005 55.9837 25.7224L62.2808 19.3469V19.3493Z" fill="white"/>
<path d="M45.4463 36.3918L45.4647 36.3723L45.4771 36.3955V36.3992L53.3217 28.6548C52.575 27.9091 50.5551 26.0909 47.3333 25.4456C43.7253 24.722 40.8837 25.9256 39.9636 26.3627L45.2581 36.5804M48.4761 33.3235L48.5007 33.2978H48.5364L48.5118 33.3235H48.4761Z" fill="#24D278"/>
<path d="M48.502 33.2978L48.4774 33.3235H48.513L48.5377 33.299L48.502 33.2978Z" fill="black"/>
</svg>
