<svg width="113" height="48" viewBox="0 0 113 48" fill="none" xmlns="http://www.w3.org/2000/svg">
<path d="M20.9914 23.1175V22.7051C20.9914 20.124 17.0619 19.6596 14.6321 19.6075H7.60024V46.6675L0 48V12.0193H14.6321C20.6816 12.0193 28.2297 12.4837 28.5916 22.0336H28.6437V23.4277C28.4362 33.8553 19.9058 33.8033 13.6497 33.8033H10.4441L12.9771 26.215H14.6832C17.1131 26.164 20.9914 25.6996 20.9914 23.1175V23.1175Z" fill="white"/>
<path d="M35.5057 7.21542C41.4028 7.21542 46.7449 9.58651 50.629 13.425L55.6962 8.27908C50.5074 3.16018 43.3762 0 35.5057 0C30.6712 0 26.1154 1.19277 22.1175 3.29892L25.5229 9.66455C28.5057 8.10084 31.9015 7.21542 35.5048 7.21542H35.5057Z" fill="#24D278"/>
<path d="M43.4756 26.1562L36.7708 33.3717H46.469C44.6451 37.6148 40.4233 40.5871 35.5057 40.5871C30.5882 40.5871 26.5728 37.7583 24.6805 33.68C24.5541 33.7426 24.4248 33.8043 24.2945 33.863C22.2555 34.7802 19.9357 35.1184 17.7056 35.2437C20.3786 42.4697 27.34 47.6214 35.5067 47.6214C42.3745 47.6214 48.3893 43.9775 51.7185 38.5214L51.8304 26.347L51.7667 26.1543H43.4756V26.1562Z" fill="white"/>
<path d="M48.8563 15.2257C45.4287 11.8352 40.7118 9.74066 35.5057 9.74066C32.3338 9.74066 29.3433 10.5182 26.7157 11.8921L30.0362 18.0988C31.6747 17.2528 33.5343 16.7749 35.5057 16.7749C38.7877 16.7749 41.7598 18.0988 43.9166 20.2405L48.8563 15.2238V15.2257Z" fill="white"/>
<path d="M35.6505 28.6362L35.665 28.6208L35.6746 28.6391V28.642L41.8283 22.5481C41.2426 21.9613 39.6581 20.5306 37.1308 20.0228C34.3005 19.4534 32.0713 20.4005 31.3495 20.7444L35.5028 28.7846M38.0272 26.2218L38.0465 26.2015H38.0745L38.0552 26.2218H38.0272Z" fill="#24D278"/>
<path d="M38.0475 26.2015L38.0282 26.2218H38.0562L38.0755 26.2025L38.0475 26.2015Z" fill="black"/>
<path d="M62.9731 35.4027H58.1019C57.8809 35.4027 57.7014 35.5819 57.7014 35.8025V45.6732C57.7014 45.8582 57.574 46.0201 57.3926 46.0625L54.6135 46.7167C54.3626 46.7754 54.1213 46.5856 54.1213 46.3274V19.8552C54.1213 19.6345 54.3008 19.4553 54.5218 19.4553H62.9722C69.4231 19.4553 72.4532 22.9903 72.4532 27.4675C72.4532 31.6307 69.7782 35.4017 62.9722 35.4017L62.9731 35.4027ZM62.9731 32.4564C67.0637 32.4564 68.7949 30.5314 68.7949 27.4685C68.7949 24.4056 67.0647 22.4016 62.9731 22.4016H58.1019C57.8809 22.4016 57.7014 22.5808 57.7014 22.8014V32.0575C57.7014 32.2781 57.8809 32.4573 58.1019 32.4573H62.9731V32.4564Z" fill="white"/>
<path d="M88.2008 40.7432H76.6132C76.5022 40.7432 76.4029 40.8125 76.3652 40.9175L74.2886 46.6569C74.2509 46.761 74.1515 46.8313 74.0406 46.8313H70.8262C70.6429 46.8313 70.5155 46.6492 70.5782 46.4777L80.2995 19.7868C80.3371 19.6827 80.4365 19.6133 80.5475 19.6133H84.308C84.419 19.6133 84.5184 19.6827 84.556 19.7877L94.2397 46.4787C94.3024 46.6502 94.1741 46.8323 93.9917 46.8323H90.7773C90.6663 46.8323 90.5669 46.7629 90.5293 46.6579L88.4527 40.9185C88.415 40.8145 88.3156 40.7441 88.2046 40.7441L88.2008 40.7432ZM82.158 24.7053L77.5772 37.4847C77.5155 37.6562 77.6429 37.8373 77.8262 37.8373H86.9888C87.1712 37.8373 87.2995 37.6562 87.2377 37.4847L82.656 24.7053C82.572 24.4721 82.242 24.4721 82.159 24.7053H82.158Z" fill="white"/>
<path d="M92.1302 19.4553H95.5009C95.6022 19.4553 95.6939 19.5131 95.7383 19.6037L102.194 32.834C102.291 33.0316 102.572 33.0316 102.669 32.834L109.126 19.6037C109.17 19.5131 109.262 19.4553 109.363 19.4553H112.735C112.933 19.4553 113.061 19.6654 112.969 19.8417L104.272 36.4442C104.252 36.4817 104.242 36.5241 104.242 36.5665V45.7802C104.242 45.9025 104.158 46.0085 104.038 46.0365L100.987 46.7542C100.821 46.7937 100.662 46.6675 100.662 46.498V36.5665C100.662 36.5241 100.651 36.4817 100.632 36.4442L91.8967 19.8417C91.8041 19.6663 91.9314 19.4553 92.1302 19.4553V19.4553Z" fill="white"/>
</svg>
