<svg width="123" height="52" viewBox="0 0 123 52" fill="none" xmlns="http://www.w3.org/2000/svg">
<path d="M22.849 25.0439V24.5972C22.849 21.801 18.5718 21.2979 15.927 21.2415H8.27283V50.5565L0 52V13.0209H15.927C22.5118 13.0209 30.7279 13.524 31.1218 23.8697H31.1786V25.38C30.9527 36.6766 21.6673 36.6202 14.8577 36.6202H11.3683L14.1256 28.3996H15.9826C18.6275 28.3443 22.849 27.8412 22.849 25.0439Z" fill="#0068FF"/>
<path d="M38.6479 7.8167C45.0668 7.8167 50.8817 10.3854 55.1095 14.5437L60.625 8.96901C54.9771 3.42352 47.2148 0 38.6479 0C33.3854 0 28.4266 1.29217 24.0748 3.57383L27.7816 10.4699C31.0284 8.77591 34.7247 7.8167 38.6468 7.8167H38.6479Z" fill="#24D278"/>
<path d="M47.323 28.3359L40.0249 36.1526H50.5813C48.596 40.7493 44.0006 43.9693 38.6479 43.9693C33.2951 43.9693 28.9244 40.9049 26.8646 36.4866C26.727 36.5545 26.5863 36.6213 26.4445 36.685C24.225 37.6786 21.6999 38.045 19.2725 38.1807C22.182 46.0088 29.7595 51.5898 38.6489 51.5898C46.1245 51.5898 52.6715 47.6423 56.2954 41.7315L56.4172 28.5426L56.3479 28.3338H47.323V28.3359Z" fill="#0068FF"/>
<path d="M53.1799 16.4945C49.4489 12.8215 44.3147 10.5524 38.6478 10.5524C35.1952 10.5524 31.9401 11.3947 29.0799 12.8831L32.6943 19.607C34.4778 18.6906 36.5019 18.1729 38.6478 18.1729C42.2202 18.1729 45.4554 19.607 47.803 21.9273L53.1799 16.4924V16.4945Z" fill="#0068FF"/>
<path d="M38.8054 31.0226L38.8212 31.0059L38.8317 31.0257V31.0288L45.53 24.4271C44.8924 23.7914 43.1677 22.2414 40.4167 21.6914C37.3359 21.0745 34.9095 22.1005 34.1238 22.4731L38.6447 31.1833M41.3925 28.4069L41.4135 28.385H41.444L41.423 28.4069H41.3925Z" fill="#24D278"/>
<path d="M41.4146 28.385L41.3936 28.4069H41.424L41.445 28.386L41.4146 28.385Z" fill="black"/>
<path d="M68.546 38.3529H63.2436C63.0031 38.3529 62.8077 38.547 62.8077 38.786V49.4793C62.8077 49.6797 62.6691 49.8551 62.4716 49.901L59.4465 50.6097C59.1734 50.6734 58.9108 50.4678 58.9108 50.188V21.5098C58.9108 21.2707 59.1062 21.0766 59.3467 21.0766H68.5449C75.5667 21.0766 78.865 24.9061 78.865 29.7565C78.865 34.2666 75.9533 38.3518 68.5449 38.3518L68.546 38.3529ZM68.546 35.1611C72.9986 35.1611 74.8829 33.0756 74.8829 29.7575C74.8829 26.4394 72.9996 24.2684 68.546 24.2684H63.2436C63.0031 24.2684 62.8077 24.4625 62.8077 24.7016V34.7289C62.8077 34.968 63.0031 35.1621 63.2436 35.1621H68.546V35.1611Z" fill="#0068FF"/>
<path d="M96.0062 44.1384H83.3931C83.2724 44.1384 83.1642 44.2136 83.1232 44.3273L80.8628 50.545C80.8218 50.6577 80.7136 50.7339 80.5928 50.7339H77.094C76.8944 50.7339 76.7558 50.5367 76.824 50.3509L87.4056 21.4356C87.4466 21.3229 87.5548 21.2478 87.6756 21.2478H91.7689C91.8897 21.2478 91.9979 21.3229 92.0389 21.4367L102.579 50.3519C102.648 50.5377 102.508 50.735 102.31 50.735H98.8107C98.6899 50.735 98.5817 50.6598 98.5407 50.546L96.2803 44.3284C96.2393 44.2157 96.1312 44.1395 96.0104 44.1395L96.0062 44.1384ZM89.4287 26.764L84.4425 40.6084C84.3753 40.7942 84.5139 40.9904 84.7135 40.9904H94.6869C94.8854 40.9904 95.0251 40.7942 94.9579 40.6084L89.9707 26.764C89.8793 26.5114 89.52 26.5114 89.4297 26.764H89.4287Z" fill="#0068FF"/>
<path d="M100.283 21.0766H103.952C104.063 21.0766 104.162 21.1392 104.211 21.2373L111.238 35.5702C111.343 35.7842 111.65 35.7842 111.755 35.5702L118.783 21.2373C118.831 21.1392 118.931 21.0766 119.041 21.0766H122.711C122.928 21.0766 123.066 21.3041 122.966 21.4951L113.499 39.4812C113.478 39.5219 113.467 39.5678 113.467 39.6137V49.5952C113.467 49.7277 113.375 49.8426 113.245 49.8728L109.924 50.6504C109.743 50.6932 109.57 50.5565 109.57 50.3728V39.6137C109.57 39.5678 109.558 39.5219 109.537 39.4812L100.029 21.4951C99.9283 21.3052 100.067 21.0766 100.283 21.0766Z" fill="#0068FF"/>
</svg>
